# xmcd CD database file
#
# Track frame offsets:
#	150
#	17369
#	31735
#	45614
#	59782
#	71792
#	87116
#	100432
#	112509
#	124050
#	137136
#	156931
#	170625
#
# Disc length: 2542 seconds
#
# Revision: 0
# Processed by: cddbd v1.5.1PL2 Copyright (c) Steve Scherf et al.
# Submitted via: CDex 1.51
#
DISCID=aa09ec0d
DTITLE=Jan Roger Barth - Jan Roger Barth
DYEAR=2006
DGENRE=Country Rock
TTITLE0=Den gang menn hadde føring og stil
TTITLE1=Sommervind
TTITLE2=Mademoiselle
TTITLE3=I et fotolaboratorium
TTITLE4=Køntrifeeling
TTITLE5=En kvinne fra i går
TTITLE6=Ikke gråt om det er vinter og det sner
TTITLE7=I dine øyne
TTITLE8=I et bittelite miniskjørt
TTITLE9=Seeman
TTITLE10=Den store dagen
TTITLE11=Nr.44
TTITLE12=Please forvive me
EXTD=YEAR: 2006
EXTT0=
EXTT1=
EXTT2=
EXTT3=
EXTT4=
EXTT5=
EXTT6=
EXTT7=
EXTT8=
EXTT9=
EXTT10=
EXTT11=
EXTT12=
PLAYORDER=
